<svg xmlns="http://www.w3.org/2000/svg" xmlns:xlink="http://www.w3.org/1999/xlink" width="107" zoomAndPan="magnify" viewBox="0 0 80.25 29.25" height="39" preserveAspectRatio="xMidYMid meet" version="1.0"><defs><g/><clipPath id="60d2649139"><path d="M 0.636719 4.359375 L 17 4.359375 L 17 21 L 0.636719 21 Z M 0.636719 4.359375 " clip-rule="nonzero"/></clipPath><clipPath id="6181f8947c"><path d="M 10 4.359375 L 16 4.359375 L 16 15 L 10 15 Z M 10 4.359375 " clip-rule="nonzero"/></clipPath></defs><g fill="#000000" fill-opacity="1"><g transform="translate(19.460321, 19.401476)"><g><path d="M 3.484375 -9.234375 L 3.484375 -4.0625 C 3.484375 -2.4375 4.03125 -1.625 5.125 -1.625 C 5.707031 -1.625 6.175781 -1.867188 6.53125 -2.359375 C 6.882812 -2.859375 7.0625 -3.5 7.0625 -4.28125 L 7.0625 -9.234375 L 9.453125 -9.234375 L 9.453125 -2.0625 C 9.453125 -1.28125 9.476562 -0.59375 9.53125 0 L 7.234375 0 C 7.171875 -0.820312 7.140625 -1.429688 7.140625 -1.828125 L 7.09375 -1.828125 C 6.769531 -1.128906 6.363281 -0.617188 5.875 -0.296875 C 5.382812 0.015625 4.800781 0.171875 4.125 0.171875 C 3.144531 0.171875 2.390625 -0.125 1.859375 -0.71875 C 1.335938 -1.320312 1.078125 -2.207031 1.078125 -3.375 L 1.078125 -9.234375 Z M 3.484375 -9.234375 "/></g></g></g><g fill="#000000" fill-opacity="1"><g transform="translate(30.1212, 19.401476)"><g><path d="M 5.078125 0.171875 C 3.671875 0.171875 2.585938 -0.242188 1.828125 -1.078125 C 1.066406 -1.910156 0.6875 -3.070312 0.6875 -4.5625 C 0.6875 -6.09375 1.066406 -7.28125 1.828125 -8.125 C 2.597656 -8.976562 3.691406 -9.40625 5.109375 -9.40625 C 6.191406 -9.40625 7.085938 -9.128906 7.796875 -8.578125 C 8.515625 -8.035156 8.960938 -7.285156 9.140625 -6.328125 L 6.734375 -6.203125 C 6.660156 -6.679688 6.488281 -7.0625 6.21875 -7.34375 C 5.945312 -7.625 5.554688 -7.765625 5.046875 -7.765625 C 3.816406 -7.765625 3.203125 -6.726562 3.203125 -4.65625 C 3.203125 -2.53125 3.832031 -1.46875 5.09375 -1.46875 C 5.539062 -1.46875 5.914062 -1.609375 6.21875 -1.890625 C 6.53125 -2.179688 6.722656 -2.613281 6.796875 -3.1875 L 9.21875 -3.078125 C 9.125 -2.441406 8.894531 -1.875 8.53125 -1.375 C 8.164062 -0.882812 7.679688 -0.503906 7.078125 -0.234375 C 6.484375 0.0351562 5.816406 0.171875 5.078125 0.171875 Z M 5.078125 0.171875 "/></g></g></g><g fill="#000000" fill-opacity="1"><g transform="translate(39.826062, 19.401476)"><g><path d="M 5 0.171875 C 3.613281 0.171875 2.546875 -0.238281 1.796875 -1.0625 C 1.054688 -1.882812 0.6875 -3.082031 0.6875 -4.65625 C 0.6875 -6.1875 1.0625 -7.359375 1.8125 -8.171875 C 2.570312 -8.992188 3.644531 -9.40625 5.03125 -9.40625 C 6.363281 -9.40625 7.378906 -8.960938 8.078125 -8.078125 C 8.773438 -7.203125 9.125 -5.914062 9.125 -4.21875 L 9.125 -4.15625 L 3.203125 -4.15625 C 3.203125 -3.257812 3.367188 -2.582031 3.703125 -2.125 C 4.035156 -1.664062 4.507812 -1.4375 5.125 -1.4375 C 5.96875 -1.4375 6.503906 -1.800781 6.734375 -2.53125 L 8.984375 -2.34375 C 8.335938 -0.664062 7.007812 0.171875 5 0.171875 Z M 5 -7.890625 C 4.4375 -7.890625 4.003906 -7.691406 3.703125 -7.296875 C 3.398438 -6.910156 3.238281 -6.363281 3.21875 -5.65625 L 6.796875 -5.65625 C 6.753906 -6.40625 6.578125 -6.960938 6.265625 -7.328125 C 5.953125 -7.703125 5.53125 -7.890625 5 -7.890625 Z M 5 -7.890625 "/></g></g></g><g fill="#000000" fill-opacity="1"><g transform="translate(49.530923, 19.401476)"><g><path d="M 9 -2.703125 C 9 -1.804688 8.632812 -1.101562 7.90625 -0.59375 C 7.175781 -0.0820312 6.164062 0.171875 4.875 0.171875 C 3.601562 0.171875 2.628906 -0.0234375 1.953125 -0.421875 C 1.285156 -0.828125 0.835938 -1.457031 0.609375 -2.3125 L 2.71875 -2.625 C 2.84375 -2.1875 3.050781 -1.875 3.34375 -1.6875 C 3.632812 -1.507812 4.144531 -1.421875 4.875 -1.421875 C 5.539062 -1.421875 6.023438 -1.503906 6.328125 -1.671875 C 6.640625 -1.835938 6.796875 -2.101562 6.796875 -2.46875 C 6.796875 -2.769531 6.671875 -3.003906 6.421875 -3.171875 C 6.179688 -3.347656 5.765625 -3.5 5.171875 -3.625 C 3.816406 -3.882812 2.898438 -4.128906 2.421875 -4.359375 C 1.953125 -4.597656 1.59375 -4.898438 1.34375 -5.265625 C 1.101562 -5.628906 0.984375 -6.078125 0.984375 -6.609375 C 0.984375 -7.492188 1.320312 -8.179688 2 -8.671875 C 2.675781 -9.171875 3.640625 -9.421875 4.890625 -9.421875 C 5.992188 -9.421875 6.878906 -9.207031 7.546875 -8.78125 C 8.210938 -8.351562 8.628906 -7.734375 8.796875 -6.921875 L 6.671875 -6.703125 C 6.597656 -7.078125 6.425781 -7.351562 6.15625 -7.53125 C 5.894531 -7.71875 5.472656 -7.8125 4.890625 -7.8125 C 4.316406 -7.8125 3.890625 -7.738281 3.609375 -7.59375 C 3.328125 -7.457031 3.1875 -7.21875 3.1875 -6.875 C 3.1875 -6.601562 3.296875 -6.390625 3.515625 -6.234375 C 3.734375 -6.078125 4.101562 -5.945312 4.625 -5.84375 C 5.34375 -5.695312 5.984375 -5.546875 6.546875 -5.390625 C 7.109375 -5.234375 7.554688 -5.046875 7.890625 -4.828125 C 8.234375 -4.609375 8.503906 -4.328125 8.703125 -3.984375 C 8.898438 -3.648438 9 -3.222656 9 -2.703125 Z M 9 -2.703125 "/></g></g></g><g fill="#000000" fill-opacity="1"><g transform="translate(59.235785, 19.401476)"><g><path d="M 9 -2.703125 C 9 -1.804688 8.632812 -1.101562 7.90625 -0.59375 C 7.175781 -0.0820312 6.164062 0.171875 4.875 0.171875 C 3.601562 0.171875 2.628906 -0.0234375 1.953125 -0.421875 C 1.285156 -0.828125 0.835938 -1.457031 0.609375 -2.3125 L 2.71875 -2.625 C 2.84375 -2.1875 3.050781 -1.875 3.34375 -1.6875 C 3.632812 -1.507812 4.144531 -1.421875 4.875 -1.421875 C 5.539062 -1.421875 6.023438 -1.503906 6.328125 -1.671875 C 6.640625 -1.835938 6.796875 -2.101562 6.796875 -2.46875 C 6.796875 -2.769531 6.671875 -3.003906 6.421875 -3.171875 C 6.179688 -3.347656 5.765625 -3.5 5.171875 -3.625 C 3.816406 -3.882812 2.898438 -4.128906 2.421875 -4.359375 C 1.953125 -4.597656 1.59375 -4.898438 1.34375 -5.265625 C 1.101562 -5.628906 0.984375 -6.078125 0.984375 -6.609375 C 0.984375 -7.492188 1.320312 -8.179688 2 -8.671875 C 2.675781 -9.171875 3.640625 -9.421875 4.890625 -9.421875 C 5.992188 -9.421875 6.878906 -9.207031 7.546875 -8.78125 C 8.210938 -8.351562 8.628906 -7.734375 8.796875 -6.921875 L 6.671875 -6.703125 C 6.597656 -7.078125 6.425781 -7.351562 6.15625 -7.53125 C 5.894531 -7.71875 5.472656 -7.8125 4.890625 -7.8125 C 4.316406 -7.8125 3.890625 -7.738281 3.609375 -7.59375 C 3.328125 -7.457031 3.1875 -7.21875 3.1875 -6.875 C 3.1875 -6.601562 3.296875 -6.390625 3.515625 -6.234375 C 3.734375 -6.078125 4.101562 -5.945312 4.625 -5.84375 C 5.34375 -5.695312 5.984375 -5.546875 6.546875 -5.390625 C 7.109375 -5.234375 7.554688 -5.046875 7.890625 -4.828125 C 8.234375 -4.609375 8.503906 -4.328125 8.703125 -3.984375 C 8.898438 -3.648438 9 -3.222656 9 -2.703125 Z M 9 -2.703125 "/></g></g></g><g clip-path="url(#60d2649139)"><path fill="#ff5757" d="M 14.164062 15.941406 L 12.921875 13.34375 C 12.851562 13.195312 12.695312 13.097656 12.535156 13.097656 L 8.390625 13.097656 C 8.074219 13.097656 7.867188 12.773438 8 12.488281 L 8.507812 11.394531 L 10.039062 8.082031 C 10.152344 7.835938 10.152344 7.554688 10.035156 7.308594 L 8.695312 4.5 C 8.628906 4.359375 8.421875 4.359375 8.355469 4.5 L 4.269531 13.097656 L 2.921875 15.941406 L 1.910156 18.066406 C 1.910156 18.070312 1.90625 18.070312 1.90625 18.074219 C 1.90625 18.078125 1.902344 18.082031 1.902344 18.082031 L 1.863281 18.164062 L 0.707031 20.585938 C 0.636719 20.730469 0.746094 20.902344 0.90625 20.902344 L 3.425781 20.902344 C 3.839844 20.902344 4.207031 20.664062 4.382812 20.289062 L 6.058594 16.671875 L 6.398438 15.941406 L 10.390625 15.941406 C 10.554688 15.941406 10.707031 16.039062 10.78125 16.1875 L 12.730469 20.300781 C 12.90625 20.667969 13.273438 20.90625 13.683594 20.90625 L 16.191406 20.90625 C 16.355469 20.90625 16.464844 20.734375 16.390625 20.589844 Z M 14.164062 15.941406 " fill-opacity="1" fill-rule="nonzero"/></g><g clip-path="url(#6181f8947c)"><path fill="#000000" d="M 10.917969 6.371094 L 10.917969 5.050781 C 10.917969 4.925781 11.019531 4.828125 11.140625 4.828125 L 12.464844 4.828125 C 12.589844 4.828125 12.6875 4.925781 12.6875 5.050781 L 12.6875 6.371094 C 12.6875 6.496094 12.589844 6.597656 12.464844 6.597656 L 11.140625 6.597656 C 11.019531 6.59375 10.917969 6.492188 10.917969 6.371094 Z M 15.726562 14.894531 C 15.851562 14.894531 15.953125 14.792969 15.953125 14.667969 L 15.953125 13.347656 C 15.953125 13.222656 15.851562 13.125 15.726562 13.125 L 14.40625 13.125 C 14.28125 13.125 14.179688 13.222656 14.179688 13.347656 L 14.179688 14.667969 C 14.179688 14.792969 14.28125 14.894531 14.40625 14.894531 Z M 15.726562 14.894531 " fill-opacity="1" fill-rule="nonzero"/></g><path fill="#3975f4" d="M 17.601562 10.054688 L 16.207031 10.054688 C 16.125 10.054688 16.050781 10.027344 15.996094 9.96875 L 15.0625 9.03125 C 15.007812 8.980469 14.976562 8.902344 14.976562 8.824219 L 14.976562 7.425781 C 14.976562 7.261719 14.84375 7.128906 14.679688 7.128906 L 12.734375 7.128906 C 12.574219 7.128906 12.4375 7.261719 12.4375 7.425781 L 12.4375 8.820312 C 12.4375 8.898438 12.410156 8.976562 12.351562 9.027344 L 11.5625 9.820312 C 11.507812 9.871094 11.433594 9.90625 11.355469 9.90625 L 9.957031 9.90625 C 9.796875 9.90625 9.664062 10.039062 9.664062 10.199219 L 9.664062 12.148438 C 9.664062 12.308594 9.796875 12.441406 9.957031 12.441406 L 11.902344 12.441406 C 12.066406 12.441406 12.199219 12.308594 12.199219 12.148438 L 12.199219 10.75 C 12.199219 10.671875 12.226562 10.597656 12.285156 10.542969 L 13.074219 9.753906 C 13.128906 9.699219 13.203125 9.664062 13.28125 9.664062 L 14.136719 9.664062 C 14.214844 9.664062 14.289062 9.695312 14.34375 9.753906 L 15.277344 10.6875 C 15.332031 10.742188 15.367188 10.816406 15.367188 10.894531 L 15.367188 12.296875 C 15.367188 12.457031 15.5 12.589844 15.660156 12.589844 L 17.605469 12.589844 C 17.769531 12.589844 17.902344 12.457031 17.902344 12.296875 L 17.902344 10.351562 C 17.898438 10.1875 17.765625 10.054688 17.601562 10.054688 Z M 17.601562 10.054688 " fill-opacity="1" fill-rule="nonzero"/></svg>